<svg xmlns="http://www.w3.org/2000/svg" id="Calque_1" width="250" height="250" data-name="Calque 1" version="1.1">
  <defs id="defs4">
    <style id="style2">
      .cls-2{fill:#ffd952}.cls-3{fill:#45c8ff}
    </style>
  </defs>
  <path id="rect3824" d="M-.591-.313h251.682V250.67H-.591z" style="fill:#fff;stroke-width:3.60793"/>
  <g id="g1719" transform="translate(-113.74 -74.61)scale(1.90993)">
    <path id="path6" d="M138.41 100.637a8.3 8.3 0 0 1-2.775-.29l-34.788-9.387a8.4 8.4 0 0 1-2.62-1.238z" style="stroke-width:.555177"/>
    <path id="path24-3-6" d="M124.883 70.6a11 11 0 0 0-4.332.936L76.34 91.095a1.6 1.6 0 0 0-.837 2.139.8.8 0 0 0 .066.177l7.094 14.022h6.156l-.875-4.889a75 75 0 0 0-1.316-5.197l20.691 6.463a24 24 0 0 0 1.063 3.623h33.548c.37-1.131.662-2.337.86-3.623l20.646-6.445a74 74 0 0 0-1.308 5.18l-.875 4.888h6.154l7.027-13.895.067-.127.068-.171a.1.1 0 0 0 0-.045 1.5 1.5 0 0 0 .066-.516 1.58 1.58 0 0 0-.994-1.584l-44.209-19.559a11 11 0 0 0-4.55-.935" style="fill:#ffd952;fill-opacity:1;stroke-width:.555177"/>
    <path id="path24-3" d="M124.883 79.855a11 11 0 0 0-4.332.935L76.34 100.35a1.6 1.6 0 0 0-.837 2.136.8.8 0 0 0 .066.178l3.848 7.604h8.175a66 66 0 0 0-.964-3.668l11.744 3.668h53.37l11.694-3.65a65 65 0 0 0-.957 3.65h8.174l3.781-7.477.067-.127.068-.172a.1.1 0 0 0 0-.045 1.5 1.5 0 0 0 .066-.515 1.58 1.58 0 0 0-.994-1.582l-44.208-19.56a11 11 0 0 0-4.55-.935" style="fill:#49c8fa;fill-opacity:1;stroke-width:.555177"/>
    <path id="path24" d="M174.636 111.368a1.5 1.5 0 0 1-.067.516.1.1 0 0 1 0 .045l-.066.172-.067.128-10.698 21.152c-1.488 2.937-4.225 2.848-3.764-.122l2.154-12.025c.072-.395.705-3.17 1.31-5.18l-20.647 6.445c-3.242 21.058-30.951 21.408-35.47 0l-20.692-6.462a75 75 0 0 1 1.316 5.197l2.154 12.025c.46 2.97-2.276 3.059-3.764.122L75.57 112.1a.8.8 0 0 1-.067-.178 1.6 1.6 0 0 1 .839-2.137l44.208-19.559a11 11 0 0 1 8.883 0l44.209 19.559a1.58 1.58 0 0 1 .994 1.582" class="cls-2" style="stroke-width:.555177"/>
    <path id="path26" d="m139.121 115.055 19.115-7.695a.81.81 0 0 0 0-1.505c-2.22-.927-4.963-1.993-7.65-3.109-.495-.205-5.175 3.154-5.602 3.498l-8.239 6.584c-1.993 1.671-.267 3.287 2.376 2.226" class="cls-3" style="stroke-width:.555177"/>
    <circle id="circle28" cx="125.264" cy="122.572" r="9.965" class="cls-3" style="stroke-width:.555177"/>
    <path id="path6-0" d="M138.41 100.637a8.3 8.3 0 0 1-2.775-.29l-34.788-9.387a8.4 8.4 0 0 1-2.62-1.238z" style="stroke-width:.555177"/>
    <path id="path24-3-6-9" d="M124.883 70.6a11 11 0 0 0-4.332.936L76.34 91.095a1.6 1.6 0 0 0-.837 2.139.8.8 0 0 0 .066.177l7.094 14.022h6.156l-.875-4.889a75 75 0 0 0-1.316-5.197l20.691 6.463a24 24 0 0 0 1.063 3.623h33.548c.37-1.131.662-2.337.86-3.623l20.646-6.445a74 74 0 0 0-1.308 5.18l-.875 4.888h6.154l7.027-13.895.067-.127.068-.171a.1.1 0 0 0 0-.045 1.5 1.5 0 0 0 .066-.516 1.58 1.58 0 0 0-.994-1.584l-44.209-19.559a11 11 0 0 0-4.55-.935" style="fill:#ff9329;fill-opacity:1;stroke-width:.555177"/>
    <path id="path24-3-2" d="M124.883 79.855a11 11 0 0 0-4.332.935L76.34 100.35a1.6 1.6 0 0 0-.837 2.136.8.8 0 0 0 .066.178l3.848 7.604h8.175a66 66 0 0 0-.964-3.668l11.744 3.668h53.37l11.694-3.65a65 65 0 0 0-.957 3.65h8.174l3.781-7.477.067-.127.068-.172a.1.1 0 0 0 0-.045 1.5 1.5 0 0 0 .066-.515 1.58 1.58 0 0 0-.994-1.582l-44.208-19.56a11 11 0 0 0-4.55-.935" style="fill:#4e4e4e;fill-opacity:1;stroke-width:.555177"/>
    <path id="path24-0" d="M174.636 111.368a1.5 1.5 0 0 1-.067.516.1.1 0 0 1 0 .045l-.066.172-.067.128-10.698 21.152c-1.488 2.937-4.225 2.848-3.764-.122l2.154-12.025c.072-.395.705-3.17 1.31-5.18l-20.647 6.445c-3.242 21.058-30.951 21.408-35.47 0l-20.692-6.462a75 75 0 0 1 1.316 5.197l2.154 12.025c.46 2.97-2.276 3.059-3.764.122L75.57 112.1a.8.8 0 0 1-.067-.178 1.6 1.6 0 0 1 .839-2.137l44.208-19.559a11 11 0 0 1 8.883 0l44.209 19.559a1.58 1.58 0 0 1 .994 1.582" class="cls-2" style="fill:#ff9329;fill-opacity:1;stroke-width:.555177"/>
    <path id="path26-2" d="m139.121 115.055 19.115-7.695a.81.81 0 0 0 0-1.505c-2.22-.927-4.963-1.993-7.65-3.109-.495-.205-5.175 3.154-5.602 3.498l-8.239 6.584c-1.993 1.671-.267 3.287 2.376 2.226" class="cls-3" style="fill:#4e4e4e;fill-opacity:1;stroke-width:.555177"/>
    <circle id="circle28-3" cx="125.264" cy="122.572" r="9.965" class="cls-3" style="fill:#4e4e4e;fill-opacity:1;stroke-width:.555177"/>
  </g>
</svg>
